<svg width="1277" height="542" xmlns="http://www.w3.org/2000/svg" xmlns:xlink="http://www.w3.org/1999/xlink" overflow="hidden"><defs><clipPath id="clip0"><rect x="1541" y="741" width="1277" height="542"/></clipPath></defs><g clip-path="url(#clip0)" transform="translate(-1541 -741)"><path d="M-0.417841 8.45753C-0.417841 3.23251 1.24762-1.04261 3.32962-1.04261 5.41161-1.04261 6.24467 3.23251 4.99541 8.45753 3.74615 13.6825 2.08036 17.9573 1.24762 17.9573 0.414892 17.9573-0.417841 13.6825-0.417841 8.45753Z" fill="#FFFFFF" fill-rule="evenodd" transform="matrix(1 0 0 -1 1778 760)"/><path d="M-0.480131 205.75C-0.937569 197.942 0.435467 196.565 7.75809 198.861 13.7077 200.698 21.4881 197.942 30.6416 190.135 38.4216 183.705 47.5751 178.194 51.2364 178.194 64.509 178.194 118.971 157.526 127.209 149.719 131.786 145.126 136.82 141.452 139.109 141.452 146.889 141.911 167.026 164.416 164.738 170.386 161.992 177.734 197.69 197.024 207.301 193.35 215.539 190.135 214.624 183.246 206.386 180.031 202.724 178.194 200.436 175.438 201.809 173.601 205.013 168.549 186.248 148.8 175.722 144.667 164.738 140.533 165.196 131.807 176.637 129.052 186.706 126.296 189.452 109.303 180.299 109.303 176.18 109.303 175.722 107.925 179.383 105.629 182.129 103.792 185.791 96.4432 187.621 89.0949 190.367 77.1537 189.91 76.2352 183.96 81.2872 177.553 86.3392 176.637 86.3392 176.637 78.9909 177.095 73.4795 183.96 67.0496 195.859 61.0792 206.386 56.0272 216.912 47.7604 219.658 42.7084 231.557 19.7447 245.745-0.922786 249.864-0.922786 257.187-0.922786 255.356 5.04803 238.88 32.6044 230.184 46.8416 224.693 58.7829 226.523 59.7013 234.303 62.9164 253.526 104.251 256.272 123.54 258.56 139.615 257.645 146.045 252.153 150.637 246.203 155.689 245.745 153.852 248.033 135.022 250.779 115.733 250.322 112.977 241.626 110.681 236.134 109.303 233.388 105.629 234.303 102.414 236.134 98.2805 233.846 96.9026 227.439 98.7395 220.116 100.577 217.827 98.2805 215.539 84.502 213.709 74.8574 209.589 67.9684 205.928 67.9684 197.232 67.9684 197.69 95.0654 206.386 112.059 210.047 119.407 213.251 123.54 213.251 121.244 213.251 114.814 226.523 133.644 226.981 140.533 226.981 149.719 214.166 146.963 206.843 136.4 202.724 130.429 197.232 127.674 193.113 129.052 183.045 133.185 183.96 140.074 194.944 142.83 199.979 144.208 206.386 151.556 209.132 159.364 215.082 176.816 230.642 182.786 239.338 170.846 251.237 154.771 249.864 168.09 237.965 186.92 227.439 202.076 222.862 205.75 211.42 205.75 197.232 205.75 191.74 203.454 156.5 183.246 145.974 177.275 137.736 174.979 135.905 177.734 134.074 180.49 126.752 180.49 117.141 178.194L101.122 174.52 117.598 174.06C127.667 173.601 135.447 170.846 136.82 167.171 140.939 157.067 134.989 154.771 124.463 162.119 119.429 165.794 111.191 169.008 106.614 169.008 102.495 169.008 97.4608 172.223 95.6303 175.898 92.8842 183.705 38.4216 211.262 23.3186 213.098 18.2842 213.558 12.7924 211.721 10.9616 208.506 8.21553 204.832 7.30029 205.291 7.30029 209.424 7.30029 219.069-0.0223317 215.395-0.480131 205.75Z" fill="#FFFFFF" fill-rule="evenodd" transform="matrix(1 0 0 -1 1793 957)"/><path d="M210.507 453.658C205.467 449.992 197.678 446.783 193.554 446.783 188.972 446.783 183.474 444.033 181.642 440.366 179.809 437.158 169.27 428.907 159.191 422.49L139.947 410.573 117.954 425.24C106.042 433.491 91.838 442.658 86.798 445.408 75.3435 452.283 53.8089 453.2 49.6856 446.783 47.8527 444.033 52.8927 442.199 61.1401 442.199 75.3435 442.199 97.7943 425.24 97.7943 414.698 97.7943 411.948 102.834 407.823 109.249 405.531 115.663 403.239 120.703 399.572 120.703 397.739 120.245 391.322 109.249 380.321 94.5872 372.53 77.1764 362.446 69.8455 361.987 73.0526 371.155 74.4272 374.821 71.6781 384.905 66.1801 393.155 60.6818 401.864 56.5581 413.323 56.5581 418.823 56.5581 429.824 51.9764 431.199 43.729 422.949 35.9402 415.157 36.8564 392.239 45.1035 389.03 53.8089 385.363 53.8089 375.279 45.5618 372.071 33.191 367.029 47.8527 336.778 62.5147 336.778 73.0526 336.778 75.3435 330.819 67.0964 322.11 57.0164 311.11 51.0601 311.568 39.1473 325.319 33.6493 331.736 27.2348 336.778 24.4856 336.778 22.1948 336.778 19.9036 339.986 19.9036 343.653 19.9036 347.32 18.0711 350.528 15.7802 350.528 13.4894 350.528 12.1148 358.32 13.0311 367.946 13.9473 377.113 13.9473 388.572 12.5728 393.155 7.53276 409.198 2.49277 400.031 0.660243 373.446 0.201931 358.32 0.660243 345.945 2.03482 345.945 3.86735 345.945 6.15819 339.986 7.53276 332.652 9.36565 324.861 13.9473 317.985 19.4456 316.152 36.8564 310.652 40.0635 301.943 33.6493 278.108 30.4419 266.191 25.8602 254.732 24.0273 252.44 21.7365 249.69 19.9036 244.19 19.9036 239.606 19.9036 235.023 14.8636 220.814 8.44938 207.98-3.46348 184.604-3.46348 176.353 9.36565 176.353 15.3219 176.353 15.3219 174.978 10.7402 169.478 6.6165 164.894 6.6165 162.603 10.2819 162.603 13.0311 162.603 15.3219 158.477 15.3219 153.436 15.3219 148.394 17.6127 144.268 19.9036 144.268 22.6527 144.268 24.4856 141.06 24.4856 137.393 24.4856 133.726 26.3181 130.518 28.6093 130.518 30.4419 130.518 32.2748 122.267 32.2748 111.725 32.2748 101.183 35.0235 91.0993 38.231 89.2657 42.3547 86.5155 42.3547 85.1404 38.231 82.3906 34.5656 80.0985 34.1073 77.8068 37.7727 75.9736 40.5219 74.14 37.7727 65.4313 29.0673 52.5972 21.7365 41.5968 16.6965 31.0548 18.0711 29.2213 18.9873 27.3877 17.6127 25.0959 14.8636 24.1793 7.99107 21.8876 13.9473 9.9702 25.4019 2.63657 34.1073-2.86347 34.5656-2.40534 32.7327 8.5951 30.9002 17.7623 34.5656 25.0959 49.6856 41.5968 61.1401 53.5142 69.8455 60.3894 71.2201 57.181 72.1364 53.9723 78.5509 51.6806 85.4234 51.6806 92.2963 51.6806 97.7943 50.3055 97.7943 48.4723 97.7943 46.6387 104.209 44.8055 111.998 44.347 119.787 43.8885 129.409 40.2217 133.074 36.5549 136.74 32.8881 140.405 29.6797 141.322 29.6797 142.238 29.6797 142.696 45.7221 142.238 65.4313 141.322 100.725 137.198 111.267 127.118 102.558 122.994 98.8914 122.078 100.725 124.369 108.517 126.66 118.142 125.743 117.684 114.747 105.308 106.958 96.1413 101.46 93.3911 99.1688 96.5994 96.878 99.3496 90.4634 103.016 84.0489 104.391 67.0964 108.517 56.1001 118.142 55.1835 129.601 55.1835 135.101 52.8927 139.685 50.6018 139.685 48.311 139.685 47.8527 142.893 49.2273 147.019 51.5181 152.519 50.1435 153.894 45.1035 151.602 40.0635 149.769 36.3981 152.977 33.191 161.686 25.8602 180.937 24.0273 204.313 29.0673 210.73 31.8164 213.939 32.2748 218.064 29.9836 219.439 24.9436 222.189 28.6093 248.773 34.1073 252.44 36.3981 253.815 38.231 257.941 38.231 261.607 38.231 269.858 60.2235 300.109 66.1801 300.109 72.1364 300.109 65.2635 284.983 54.7256 275.817 45.5618 267.566 45.5618 267.108 54.2672 270.316 62.0564 272.608 62.0564 271.691 51.5181 260.232 36.3981 243.273 35.9402 227.689 50.1435 210.73L61.5981 196.979 59.3072 211.647C57.4747 221.731 59.7655 229.523 66.1801 237.773 71.2201 244.19 74.4272 251.524 73.0526 253.815 71.6781 256.107 73.5109 260.232 77.6343 263.441 81.3001 266.649 83.5909 272.15 82.2163 275.358 80.8418 278.566 81.758 282.692 84.0489 284.067 86.798 285.9 88.6309 289.109 88.6309 291.4 88.6309 294.151 86.798 294.609 84.0489 293.234 75.3435 287.734 79.4672 295.984 90.9218 306.068 104.209 318.444 127.576 361.071 121.162 363.362 109.249 367.488 150.943 414.698 166.522 414.698 169.27 414.698 183.932 420.657 199.052 428.449 222.419 439.908 226.543 440.824 225.169 433.949 224.252 429.824 221.045 426.616 217.838 427.074 210.049 428.907 197.219 406.906 200.885 397.739 203.634 389.947 204.092 389.947 209.59 397.281 212.798 401.864 216.921 404.156 218.296 402.323 220.129 400.948 221.503 402.323 221.503 405.531 221.503 408.74 225.169 415.615 229.292 420.199 235.707 427.532 236.165 430.741 231.583 437.616 228.834 442.658 227.459 449.533 228.834 453.658 232.499 462.367 221.961 462.367 210.507 453.658ZM117.954 77.3487C121.162 68.64 99.6272 63.598 90.9218 70.9317 87.2563 74.14 84.0489 80.0985 84.0489 84.6823 84.0489 92.0159 85.8818 92.4744 100.085 88.3491 108.791 85.5989 116.58 80.557 117.954 77.3487Z" fill="#FFFFFF" fill-rule="evenodd" transform="matrix(1 0 0 -1 1542 1207)"/><path d="M58.725 164.362C21.8867 155.662 1.62572 129.103-0.676599 87.4323-2.51831 49.425 10.3748 21.0342 35.2408 7.75441 51.818-0.946011 97.4049-3.69359 126.876 2.25962L141.15 5.46488 141.15 50.3408 141.15 95.6747 106.615 95.6747 72.0787 95.6747 72.0787 79.6477C72.0787 64.9944 72.9999 63.6206 85.8933 63.6206 98.3262 63.6206 99.7076 62.2468 99.7076 49.8831 99.7076 37.0613 98.7864 36.1456 81.7489 36.1456 55.0412 36.1456 43.0686 52.6303 45.3713 85.6005 48.5945 124.524 70.6976 137.803 114.443 126.355 125.034 123.608 126.876 124.982 131.48 137.803 138.848 158.41 138.848 158.41 113.522 163.905 87.2744 169.399 81.2883 169.399 58.725 164.362Z" fill="#FFFFFF" fill-rule="evenodd" transform="matrix(1 0 0 -1 2255 939)"/><path d="M-0.735492 81.5852-0.735492-0.914767 22.1809-0.914767 45.0977-0.914767 45.0977 26.1268C45.0977 44.0019 47.3893 55.0018 51.5144 58.6688 57.4726 63.252 61.1393 58.6688 74.8893 31.6269L90.9312-0.914767 116.598-0.914767 142.265-0.914767 130.806 18.7935C124.848 29.3353 112.931 49.9601 104.681 64.1686L90.0143 90.752 116.14 127.419 141.806 164.086 117.056 164.086 92.3062 164.086 68.4725 128.794 45.0977 93.0436 45.0977 128.794 45.0977 164.086 22.1809 164.086-0.735492 164.086-0.735492 81.5852Z" fill="#FFFFFF" fill-rule="evenodd" transform="matrix(1 0 0 -1 2099 938)"/><path d="M1.34926 8.14738C-3.02151-2.86212 1.83507-4.23831 8.63452 5.85349 12.5199 11.8171 12.5199 15.028 9.60576 15.028 6.69166 15.028 3.29213 11.8171 1.34926 8.14738Z" fill="#FFFFFF" fill-rule="evenodd" transform="matrix(1 0 0 -1 1548 799)"/><path d="M-0.471742 13.3385C-0.471742 10.2535 3.57844 5.40546 8.52855 2.32049 15.7286-2.08706 17.5285-2.08706 17.5285 2.761 17.5285 8.93129 8.52855 19.0683 3.1283 19.0683 1.32846 19.0683-0.471742 16.4238-0.471742 13.3385Z" fill="#FFFFFF" fill-rule="evenodd" transform="matrix(1 0 0 -1 1801 803)"/><path d="M-0.408922 3.64856C-0.408922 1.39858 3.70404-0.851403 8.27375-0.851403 13.3006-0.851403 18.7845 1.39858 20.1555 3.64856 21.9833 6.34869 17.8707 8.14889 11.4728 8.14889 5.07502 8.14889-0.408922 6.34869-0.408922 3.64856Z" fill="#FFFFFF" fill-rule="evenodd" transform="matrix(1 0 0 -1 1700 915)"/><path d="M1.08665 20.0919C2.85359 14.1444 3.73689 6.82487 2.41177 3.16509 1.08665-0.494691 2.41177-1.86715 5.50348-0.0370838 13.0124 4.99516 11.6872 30.1564 3.73689 30.1564-1.12176 30.1564-1.56358 27.4114 1.08665 20.0919Z" fill="#FFFFFF" fill-rule="evenodd" transform="matrix(1 0 0 -1 1895 951)"/><path d="M6.24368 109.694C3.48962 107.865 0.735209 97.8063-0.182809 87.2902-1.10119 70.373 0.276019 67.1727 10.3753 62.6007 18.1793 58.943 22.311 53.4563 22.311 46.1409 22.311 37.9108 25.9834 33.7961 36.5415 30.1384L51.2316 25.1091 38.8371 18.708C32.4103 15.0503 25.065 13.2213 22.7698 14.593 20.4746 15.9647 15.4249 13.2213 10.8345 8.19193 0.276019-3.23849 6.24368-3.69547 38.8371 6.36327 61.3309 13.6786 62.7081 15.0503 65.4621 31.5098 67.2985 42.4832 71.889 50.7129 77.3978 53.9136 82.4474 56.6566 86.5791 61.686 86.5791 65.3437 86.5791 74.9454 80.6111 74.0311 73.7254 63.0577 67.2985 52.0846 53.0676 51.1702 45.2636 60.7716 42.0503 64.4293 32.8691 67.63 24.6062 67.63 13.5889 67.63 8.99809 69.916 7.16206 76.7741 3.48962 90.9479 8.53926 104.207 18.1793 104.207 23.229 104.207 26.9014 106.493 26.9014 108.779 26.9014 114.266 13.1297 114.723 6.24368 109.694ZM50.3132 49.7986C60.4125 41.5685 60.4125 40.6542 53.5268 37.9108 41.5912 33.3388 31.4919 38.3682 31.4919 49.3412 31.4919 60.7716 36.5415 60.7716 50.3132 49.7986Z" fill="#FFFFFF" fill-rule="evenodd" transform="matrix(1 0 0 -1 1682 1039)"/><path d="M0.237514 3.71869C1.7002 1.4687 4.13788-0.781279 5.60057-0.781279 6.57595-0.781279 7.55094 1.4687 7.55094 3.71869 7.55094 6.41881 5.11326 8.21901 2.18789 8.21901-0.249792 8.21901-1.22517 6.41881 0.237514 3.71869Z" fill="#FFFFFF" fill-rule="evenodd" transform="matrix(1 0 0 -1 1724 998)"/><path d="M2.55481 20.392C0.836045 15.7874-0.453196 8.42038-0.453196 4.27632-0.0236744-2.63008 0.406185-2.63008 4.27391 4.7369 6.85205 9.34117 8.14129 16.2479 7.28191 20.8522 5.99267 28.2192 5.56315 27.759 2.55481 20.392Z" fill="#FFFFFF" fill-rule="evenodd" transform="matrix(1 0 0 -1 1810 952)"/><path d="M3.45622 10.8478C-0.158976 6.65516-1.51472 1.99695 0.292701 0.133448 4.35993-4.05879 13.3981 6.18956 11.1386 12.7109 10.2346 16.4379 7.52345 15.9719 3.45622 10.8478Z" fill="#FFFFFF" fill-rule="evenodd" transform="matrix(1 0 0 -1 1848 961)"/><path d="M0.811739 11.445C5.00273-2.71522 5.93394-3.62868 14.7817 3.67973 21.3005 9.16086 21.3005 10.0747 13.8501 15.5558 1.74331 24.2346-2.91346 22.8642 0.811739 11.445Z" fill="#FFFFFF" fill-rule="evenodd" transform="matrix(1 0 0 -1 1733 970)"/><path d="M2.95234 88.7239C-1.67825 83.2119-1.67825 79.9965 2.95234 71.7289 6.19404 65.7578 8.97254 50.1409 9.43538 36.8208 9.43538 19.8258 12.2139 10.1802 18.2337 4.66825 26.106-2.68079 26.106-2.68079 23.3275 5.1277 14.5292 29.9308 14.9924 34.5242 26.106 37.2799 36.2936 40.0358 36.2936 40.4953 27.4953 47.3849 18.2337 54.2748 18.2337 54.2748 29.3477 63.4613 43.2399 74.944 48.3337 74.944 48.3337 63.0019 48.3337 57.9494 50.649 55.1934 52.9643 56.5714 58.9841 60.2459 58.9841 81.8339 52.9643 81.8339 50.1858 81.8339 40.9242 79.0779 32.1259 75.4034 19.1601 69.8915 15.4552 69.8915 11.2878 74.4849 8.97254 78.1594 7.58329 84.1305 9.43538 88.2644 13.1399 97.4509 10.8246 97.4509 2.95234 88.7239Z" fill="#FFFFFF" fill-rule="evenodd" transform="matrix(1 0 0 -1 1830 1053)"/><path d="M4.45177 124.916C4.45177 114.836 3.06362 106.589 1.21263 106.589-1.10083 106.589-1.10083 104.756 0.287317 102.006 4.91424 94.6756 6.76523 51.606 2.60078 51.606-4.80245 51.606 3.98893 33.2787 15.0938 26.4057 21.1092 22.2823 25.2733 16.3256 24.348 12.6602 21.1092 4.41297 29.4377-2.91794 39.1544-0.168759 49.7968 2.58006 48.4086 21.3657 36.3785 34.195 28.9749 42.4425 19.2582 71.7662 14.1685 103.381 13.2431 110.254 10.9297 118.501 9.07869 121.25 6.76523 124.458 7.69054 124.916 11.855 122.625 16.4819 119.876 17.4076 120.792 15.0938 126.748 13.2431 131.33 11.855 136.829 11.855 139.12 11.855 141.411 10.004 143.243 7.69054 143.243 5.37708 143.243 3.98893 134.996 4.45177 124.916Z" fill="#FFFFFF" fill-rule="evenodd" transform="matrix(1 0 0 -1 2031 1110)"/><path d="M0.133907 3.71869C-1.32871 1.4687-0.353377-0.781279 2.08419-0.781279 5.00943-0.781279 7.44701 1.4687 7.44701 3.71869 7.44701 6.41881 6.47205 8.21901 5.49672 8.21901 4.0341 8.21901 1.59653 6.41881 0.133907 3.71869Z" fill="#FFFFFF" fill-rule="evenodd" transform="matrix(1 0 0 -1 1862 998)"/><path d="M40.5181 20.7245C26.7895 13.4685 14.8918 12.5616 10.7733 18.9107 9.40041 21.6314 6.19731 23.4456 3.45159 23.4456-3.41234 23.4456-1.12436 14.829 8.02755 5.75879 16.2647-2.40417 18.5527-2.40417 36.8569 3.03769 47.8397 6.21243 56.0765 11.201 55.1614 14.3754 54.2463 18.457 57.9071 18.9107 66.6016 17.0965 78.957 14.3754 78.957 14.3754 70.7199 21.1782 60.1951 29.3411 55.6188 29.3411 40.5181 20.7245Z" fill="#FFFFFF" fill-rule="evenodd" transform="matrix(1 0 0 -1 1856 1045)"/><path d="M2.69176 19.4081C-2.28282 14.7162-0.926082-0.767714 4.04849-0.767714 6.76196-0.767714 8.57106 4.39358 8.57106 10.9625 8.57106 23.1618 7.66633 24.5694 2.69176 19.4081Z" fill="#FFFFFF" fill-rule="evenodd" transform="matrix(1 0 0 -1 1741 1058)"/><path d="M13.3644 49.7329C13.3644 42.4653 9.65114 33.835 5.9379 30.2012-2.4168 21.5708-2.8811 14.3032 5.00968 4.31016 8.72292-0.686366 12.9005-2.04909 17.0776 0.676356 22.1834 3.8558 22.6477 10.215 18.9344 33.835 16.1494 49.2789 13.8287 56.5465 13.3644 49.7329Z" fill="#FFFFFF" fill-rule="evenodd" transform="matrix(1 0 0 -1 1998 1119)"/><path d="M6.39556 8.16197C19.7241-3.68612 28.1655-3.68612 17.9472 8.16197 13.5044 13.1747 6.83997 17.2761 2.84131 17.2761-2.4899 16.8203-1.60143 14.9977 6.39556 8.16197Z" fill="#FFFFFF" fill-rule="evenodd" transform="matrix(1 0 0 -1 1876 1080)"/><path d="M2.20605 21.7206C-2.31128 9.85305-0.956013 3.00631 6.27186-0.188591 14.4035-3.38349 26.6006 8.4837 26.6006 20.3513 26.6006 31.3057 6.27186 32.675 2.20605 21.7206Z" fill="#FFFFFF" fill-rule="evenodd" transform="matrix(1 0 0 -1 1691 1097)"/><path d="M10.1306 12.7187C10.1306 7.81807 6.42274 2.91749 2.25131 2.02657-2.84697 0.690016-0.993249-0.200904 6.88599-0.646539 16.1557-1.09217 19.3999 1.13565 19.3999 7.37244 19.3999 12.273 17.5462 17.6192 14.7652 18.9558 12.4479 20.2923 10.1306 17.6192 10.1306 12.7187Z" fill="#FFFFFF" fill-rule="evenodd" transform="matrix(1 0 0 -1 1960 1089)"/><path d="M58.4248 164.639C21.846 155.939 1.72763 129.38-0.558483 87.7096-2.38723 49.7024 10.4151 21.3117 35.106 8.03189 51.5664-0.668513 96.8323-3.41608 126.095 2.53711L140.27 5.74237 140.27 50.6182 140.27 95.952 105.977 95.952 71.6844 95.952 71.6844 79.925C71.6844 65.2718 72.5991 63.898 85.4018 63.898 97.747 63.898 99.1188 62.5242 99.1188 50.1605 99.1188 37.3387 98.204 36.423 81.2866 36.423 54.7669 36.423 42.8787 52.9077 45.1651 85.8778 48.3656 124.801 70.313 138.081 113.75 126.633 124.267 123.885 126.095 125.259 130.668 138.081 137.984 158.687 137.984 158.687 112.836 164.182 86.7731 169.677 80.8292 169.677 58.4248 164.639Z" fill="#FFFFFF" fill-rule="evenodd" transform="matrix(1 0 0 -1 2095 1260)"/><path d="M38.3644 164.517C14.9862 157.177 3.52641 142.496 3.52641 119.099 3.98493 92.9493 9.02724 86.0676 42.4897 67.2581 71.8269 50.7428 76.8692 43.4022 64.4927 36.9795 56.2418 32.3919 25.5294 36.062 7.19387 42.9437 0.317828 45.6964-1.05738 43.4022-1.05738 27.3455-1.05738 4.40702 8.11055-0.639426 50.2824-0.639426 93.3713-0.639426 115.832 17.7115 114.916 52.5777 114.457 73.2224 104.373 84.2327 71.3683 100.748 56.6999 108.089 44.7819 117.264 44.7819 120.934 44.7819 130.568 64.9512 134.238 81.9115 128.274 102.081 121.393 102.539 121.393 108.957 137.45 116.291 154.424 112.165 159.012 87.8705 164.976 66.326 169.563 55.7832 169.563 38.3644 164.517Z" fill="#FFFFFF" fill-rule="evenodd" transform="matrix(1 0 0 -1 2567 1259)"/><path d="M36.8377 163.641C5.71469 154.481-7.10077 114.635 13.0377 88.9868 18.5298 82.117 34.0915 71.1251 47.3644 64.713 97.2531 41.3548 67.9607 24.8667 9.3762 42.7288-0.235576 45.935-1.15086 44.561-1.15086 27.157-1.15086 11.1267 0.680072 7.46276 10.7493 3.79878 28.599-3.07103 75.2837-1.697 90.3876 6.08872 105.034 13.8748 117.849 34.0268 117.849 49.599 117.849 68.8348 104.576 85.3228 79.8605 97.231 48.7375 111.887 41.8723 119.215 51.9416 127.917 57.8915 132.497 62.9261 132.497 79.8605 127.917 102.288 121.963 104.118 122.879 112.357 142.573 117.391 154.023 116.934 155.397 106.407 159.519 88.5566 166.389 52.399 168.679 36.8377 163.641Z" fill="#FFFFFF" fill-rule="evenodd" transform="matrix(1 0 0 -1 2700 1259)"/><path d="M-0.135503 2.36383C1.72601-0.566644 4.9832-1.54385 7.31018-0.0784229 13.8246 4.31787 12.4289 7.24873 4.05262 7.24873 0.329967 7.24873-1.53155 4.80648-0.135503 2.36383Z" fill="#FFFFFF" fill-rule="evenodd" transform="matrix(1 0 0 -1 1958 1102)"/><path d="M-0.850552 81.863-0.850552-0.637018 52.1499-0.637018 105.15-0.637018 105.15 17.6962 105.15 36.0298 72.8889 36.0298 40.6281 36.0298 40.6281 100.197 40.6281 164.363 19.8888 164.363-0.850552 164.363-0.850552 81.863Z" fill="#FFFFFF" fill-rule="evenodd" transform="matrix(1 0 0 -1 2273 1259)"/><path d="M50.7028 158.521C49.7884 155.319 37.9046 118.275 24.1924 76.1986L-0.946787-0.635285 23.7352-0.635285C47.503-0.635285 48.4171-0.178168 52.0737 14.4571 55.7306 28.6346 56.6447 29.0921 83.6119 30.4642L111.494 31.8362 114.236 15.3717 117.435-0.635285 142.575-0.635285C164.514-0.635285 167.714 0.279309 165.428 7.59678 164.057 11.713 151.716 48.3007 138.461 88.5472L113.779 161.722 83.6119 163.094C61.6725 164.009 52.5309 162.637 50.7028 158.521ZM98.2385 76.1986C98.6954 69.796 95.0388 67.9665 82.2406 67.9665 70.8137 67.9665 66.2431 69.796 68.0716 73.9119 68.9856 76.656 72.6422 91.7485 76.2988 106.841L82.2406 134.282 90.4682 109.128C94.582 95.4072 98.2385 80.3148 98.2385 76.1986Z" fill="#FFFFFF" fill-rule="evenodd" transform="matrix(1 0 0 -1 2389 1259)"/><path d="M4.64673 19.7587C-3.0483 11.913-2.14311 3.6056 6.45747 0.375198 11.889-1.93229 13.247-0.547724 10.9838 4.99017 8.72063 11.4513 9.17305 11.913 15.0577 6.83638 23.2051-0.0864444 23.6579 6.37473 15.5101 16.9896 10.9838 22.9891 8.72063 23.9121 4.64673 19.7587Z" fill="#FFFFFF" fill-rule="evenodd" transform="matrix(1 0 0 -1 1980 1129)"/><path d="M10.2446 25.0938C2.14588 15.2243-2.80346 3.11187 0.79603-0.476984 2.14588-1.82285 7.09522 4.45774 12.0446 12.9813 21.4932 30.926 20.5934 37.2062 10.2446 25.0938Z" fill="#FFFFFF" fill-rule="evenodd" transform="matrix(1 0 0 -1 1693 1151)"/><path d="M-0.186694 39.7701C-1.60156 37.4989 1.22817 27.505 5.94416 17.5112L14.4334-0.659249 14.4334 13.4227C14.9047 27.505 4.05791 47.0383-0.186694 39.7701Z" fill="#FFFFFF" fill-rule="evenodd" transform="matrix(1 0 0 -1 1882 1165)"/><path d="M0.965971 0.00908021C3.7078-0.914195 9.19146-0.914195 12.39 0.00908021 15.1319 1.39363 12.8471 2.31654 6.44963 2.31654 0.0521466 2.31654-2.23259 1.39363 0.965971 0.00908021Z" fill="#FFFFFF" fill-rule="evenodd" transform="matrix(1 0 0 -1 1789 1130)"/><path d="M12.395 22.1363C0.600848 13.2935-4.84284-0.668833 3.32269-0.668833 9.21978-0.203287 20.5606 10.501 26.4576 21.6711 33.2623 34.2372 28.2723 34.7024 12.395 22.1363Z" fill="#FFFFFF" fill-rule="evenodd" transform="matrix(1 0 0 -1 1938 1168)"/><path d="M1.53877 0.0210686C5.72263-0.902318 13.1604-0.902318 17.8089 0.0210686 21.9927 1.40579 18.2739 2.32881 9.4415 2.32881 0.609141 2.32881-3.10973 1.40579 1.53877 0.0210686Z" fill="#FFFFFF" fill-rule="evenodd" transform="matrix(1 0 0 -1 1782 1144)"/><path d="M83.5351 126.893C83.9943 123.682 78.9448 120.472 72.059 119.555 65.6323 118.638 56.9105 113.134 52.7794 107.63 46.3528 97.5408 46.8116 95.7065 59.6649 78.279 67.0095 68.1894 77.1084 59.0169 82.6171 57.641 100.52 53.0549 89.5025 42.9653 67.9278 44.3412 44.5164 45.7171 41.3033 48.0101 29.368 71.3996 17.4331 93.8719-0.469651 120.931-0.469651 116.344-0.469651 104.879 35.3355 43.8824 54.6154 23.2447 75.2725 0.772045 78.0264-0.603848 99.1427-0.603848 129.44-0.145097 156.982 12.6963 164.327 31.041 167.999 38.8376 172.13 45.2583 173.966 45.2583 175.803 45.2583 179.934 54.8892 183.147 67.2719 186.361 79.1962 190.951 90.6617 192.787 93.4135 195.082 95.7065 196.919 101.668 196.46 107.172 196.46 113.593 193.706 110.841 187.279 97.9996 182.688 87.9099 178.557 76.4444 178.557 72.3167 178.557 68.1894 173.508 59.0169 167.081 51.679 153.31 35.6274 127.603 32.8756 119.341 46.1754 112.914 56.7238 116.586 63.603 128.062 63.603 133.112 63.603 139.997 69.1065 144.129 76.9031 147.801 84.241 153.31 91.1205 156.523 92.496 168.458 96.6237 141.374 118.638 123.931 119.096 114.75 119.555 111.078 120.472 115.668 121.848 130.817 125.975 123.013 132.396 102.815 132.396 88.5846 132.396 82.6171 130.562 83.5351 126.893ZM146.424 100.293C146.424 92.0376 144.588 91.1205 130.358 93.8719 114.291 96.6237 114.291 96.6237 114.291 80.1133 114.291 70.9412 112.455 63.603 109.7 63.603 107.405 63.603 105.11 66.8135 105.11 70.4824 105.11 74.1513 102.815 77.3615 100.061 77.3615 97.7655 77.3615 96.8475 75.5272 98.2243 72.7755 99.6015 70.0237 96.3884 68.1894 90.4209 68.6478 84.4531 68.6478 82.6171 70.0237 85.8302 71.3996 93.1749 74.1513 93.1749 89.7446 85.8302 94.3306 82.6171 96.1653 73.8953 97.0824 66.0915 96.6237 52.7794 95.7065 52.7794 95.7065 61.042 102.586 67.4687 107.63 80.7808 109.465 108.323 109.465 143.67 109.465 146.424 109.006 146.424 100.293ZM125.767 22.786C120.718 18.1999 107.864 15.9065 93.634 17.7412 86.7486 18.6583 88.1254 19.5754 98.2243 22.3272 118.422 27.3721 130.817 27.8308 125.767 22.786ZM141.834 22.3272C141.834 20.0342 139.538 17.7412 136.784 17.7412 134.489 17.7412 133.571 20.0342 134.948 22.3272 136.325 25.079 138.62 26.9137 139.997 26.9137 140.915 26.9137 141.834 25.079 141.834 22.3272Z" fill="#FFFFFF" fill-rule="evenodd" transform="matrix(1 0 0 -1 1695 1282)"/><path d="M10.1285 17.9365C-5.33135 2.86747-3.45764-8.09174 12.0022 5.60737 18.5609 11.5436 23.246 19.3065 22.3087 22.0464 20.9033 26.1562 17.1555 24.7863 10.1285 17.9365Z" fill="#FFFFFF" fill-rule="evenodd" transform="matrix(1 0 0 -1 1910 1181)"/><path d="M2.0088 37.2372C-1.17005 33.1377-1.17005 31.3155 2.46267 31.3155 5.1873 31.3155 7.4577 28.1272 7.4577 24.4832 7.4577 20.8392 9.7281 17.6505 11.9989 17.6505 14.7231 17.6505 16.5397 13.5513 16.5397 8.54082 16.5397 2.61906 19.7182-0.569268 25.6216-0.569268 34.7032-0.569268 34.7032-0.113639 27.4378 10.8182 21.5347 19.928 20.6266 24.9385 24.7132 33.1377 29.2544 43.1586 28.3463 44.0695 17.902 43.1586 11.9989 43.1586 4.73307 39.97 2.0088 37.2372Z" fill="#FFFFFF" fill-rule="evenodd" transform="matrix(1 0 0 -1 1573 1273)"/></g></svg>