<svg width="1299" height="1299" xmlns="http://www.w3.org/2000/svg" xmlns:xlink="http://www.w3.org/1999/xlink" overflow="hidden"><defs><clipPath id="clip0"><rect x="2966" y="468" width="1299" height="1299"/></clipPath></defs><g clip-path="url(#clip0)" transform="translate(-2966 -468)"><path d="M3660.26 1387.08 3660.26 1432.85 3706.04 1432.85 3706.04 1387.08ZM3660.26 1332.32 3660.26 1378.1 3706.04 1378.1 3706.04 1332.32ZM3494.62 960.371 3576.85 992.007 3576.85 1213.6 3567.52 1221.34 3543.08 1207.08 3494.62 1234.77ZM3776.55 942.833 3776.55 1170.7 3721.73 1167.68 3721.73 976.572ZM3696.42 666.602 3778.67 698.227 3778.67 921.747 3704.86 963.92 3704.86 1166.75 3696.42 1166.29ZM3690.1 637.081 3578.34 685.575 3578.34 971.468 3488.29 930.85 3376.53 979.354 3376.53 1122.19 3355.57 1110.53 3273.33 1154.82 3273.33 1300.93 3244.34 1288.28 3168.43 1322.07C3168.43 1322.07 3166.32 1529.64 3166.32 1534.47L3261.21 1534.47 3261.21 1310.81 3273.33 1316.5 3273.33 1534.37 3273.42 1534.37 3273.42 1535.65 3316.03 1535.65 3316.03 1536.08 3332.9 1536.08 3332.9 1535.65 3366.11 1535.65 3366.11 1140.05 3376.53 1145.67 3376.53 1531.82 3454.51 1531.82 3471.38 1531.82 3494.62 1531.82 3494.62 1256.05 3526.21 1236.6 3526.21 1255.64 3526.21 1300.99 3526.21 1529.7 3621.09 1529.7 3621.09 1433.92 3648.99 1433.92 3648.99 1388.14 3621.09 1388.14 3621.09 1378.98 3648.99 1378.98 3648.99 1333.21 3621.09 1333.21 3621.09 1251.37 3602.59 1241.02 3634.43 1216.02 3814.83 1356.68 3814.83 1540.38 4010.11 1540.38 4010.11 1363.31 4058.1 1363.31 3871.45 1215.27 3871.45 957.589 3820.62 929.174 3797.64 915.766 3797.64 685.575ZM3390.72 468 3840.28 468C4074.85 468 4265 658.154 4265 892.721L4265 1342.28C4265 1576.85 4074.85 1767 3840.28 1767L3390.72 1767C3156.15 1767 2966 1576.85 2966 1342.28L2966 892.721C2966 658.154 3156.15 468 3390.72 468Z" fill="#FFFFFF" fill-rule="evenodd"/></g></svg>