<svg width="1299" height="1299" xmlns="http://www.w3.org/2000/svg" xmlns:xlink="http://www.w3.org/1999/xlink" overflow="hidden"><defs><clipPath id="clip0"><rect x="86" y="436" width="1299" height="1299"/></clipPath></defs><g clip-path="url(#clip0)" transform="translate(-86 -436)"><path d="M474.219 1167.36 474.219 1302.13 335.165 1302.13ZM1007.14 960.641 1116.36 1069.86C1080.26 1060.72 1042.66 1061.38 1007.14 1071.61ZM1035.96 929.716 1167.11 929.716C1174.78 929.716 1181.79 932.884 1186.86 938.635 1191.92 944.385 1194.18 951.743 1193.22 959.347L1178.84 1072.59ZM812.61 929.716 964.895 929.716 964.895 1101.96C964.895 1109.16 968.566 1115.87 974.633 1119.75 980.698 1123.63 988.324 1124.16 994.87 1121.14 1032.97 1103.55 1075.97 1100.9 1115.94 1113.66L1171.37 1131.36 1149.69 1302.13 516.466 1302.13 516.466 1126.41 652.481 994.582C695.639 952.752 752.506 929.716 812.61 929.716ZM812.601 868.866 1167.1 868.866C1192.14 868.866 1215.97 879.629 1232.51 898.408 1249.06 917.192 1256.75 942.198 1253.59 967.018L1211.03 1302.13 1192.28 1302.13 1235.13 964.668C1237.61 945.143 1231.57 925.475 1218.55 910.707 1205.54 895.939 1186.79 887.468 1167.11 887.468L812.61 887.468C741.471 887.468 674.164 914.734 623.08 964.246L274.465 1302.13 247.734 1302.13 610.119 950.896C664.7 897.997 736.612 868.866 812.601 868.866ZM812.603 826.618C725.576 826.618 643.225 859.979 580.717 920.56L180.889 1308.09C174.71 1314.08 172.783 1323.22 176.012 1331.19 179.244 1339.16 186.987 1344.38 195.592 1344.38L1229.64 1344.38C1240.28 1344.38 1249.25 1336.47 1250.6 1325.92L1295.5 972.343C1300.19 935.492 1288.78 898.361 1264.21 870.485 1239.67 842.606 1204.28 826.618 1167.11 826.618ZM510.721 436 960.279 436C1194.85 436 1385 626.154 1385 860.721L1385 1310.28C1385 1544.85 1194.85 1735 960.279 1735L510.721 1735C276.154 1735 85.9999 1544.85 85.9999 1310.28L85.9999 860.721C85.9999 626.154 276.154 436 510.721 436Z" fill="#FFFFFF" fill-rule="evenodd"/></g></svg>